REM DIRINDEX 1\2,1\3\7,1\3\8,1\4\9,1\4\10,1\4\11,1\5\12,1\5\13,1\5\14,1\6\15,1\6\16,1\6\17
REM DIRNAME "folder01","folder02","folder03","folder04","folder05","folder06","folder07","folder08","folder09","folder10","folder11","folder12","folder13","folder14","folder15","folder16","folder17"
TITLE ""
FILE "2Q_t_0253-0270.mp3" MP3
  TRACK 01 AUDIO
    TITLE "0:"
    INDEX 01 00:00:00
  TRACK 02 AUDIO
    TITLE "7:cjc174_2246"
    INDEX 01 00:00:14
  TRACK 03 AUDIO
    TITLE "0:"
    INDEX 01 00:01:14
  TRACK 04 AUDIO
    TITLE "8:cjc174_2247"
    INDEX 01 00:01:65
  TRACK 05 AUDIO
    TITLE "0:"
    INDEX 01 00:04:32
  TRACK 06 AUDIO
    TITLE "7:cjc174_2248"
    INDEX 01 00:05:02
  TRACK 07 AUDIO
    TITLE "0:"
    INDEX 01 00:06:13
  TRACK 08 AUDIO
    TITLE "8:cjc174_2249"
    INDEX 01 00:06:60
  TRACK 09 AUDIO
    TITLE "0:"
    INDEX 01 00:08:06
  TRACK 10 AUDIO
    TITLE "7:cjc174_2250"
    INDEX 01 00:08:51
  TRACK 11 AUDIO
    TITLE "0:"
    INDEX 01 00:10:24
  TRACK 12 AUDIO
    TITLE "8:cjc174_2251"
    INDEX 01 00:10:67
  TRACK 13 AUDIO
    TITLE "0:"
    INDEX 01 00:12:33
  TRACK 14 AUDIO
    TITLE "7:cjc174_2252"
    INDEX 01 00:13:03
  TRACK 15 AUDIO
    TITLE "0:"
    INDEX 01 00:14:40
  TRACK 16 AUDIO
    TITLE "8:cjc174_2253"
    INDEX 01 00:15:20
  TRACK 17 AUDIO
    TITLE "0:"
    INDEX 01 00:18:16
  TRACK 18 AUDIO
    TITLE "7:cjc174_2254"
    INDEX 01 00:18:59
  TRACK 19 AUDIO
    TITLE "0:"
    INDEX 01 00:19:64
  TRACK 20 AUDIO
    TITLE "8:cjc174_2255"
    INDEX 01 00:20:38
  TRACK 21 AUDIO
    TITLE "0:"
    INDEX 01 00:22:49
  TRACK 22 AUDIO
    TITLE "7:cjc174_2256"
    INDEX 01 00:23:19
  TRACK 23 AUDIO
    TITLE "0:"
    INDEX 01 00:24:52
  TRACK 24 AUDIO
    TITLE "8:cjc174_2257"
    INDEX 01 00:25:22
  TRACK 25 AUDIO
    TITLE "0:"
    INDEX 01 00:27:56
  TRACK 26 AUDIO
    TITLE "7:cjc174_2258"
    INDEX 01 00:28:26
  TRACK 27 AUDIO
    TITLE "0:"
    INDEX 01 00:29:20
  TRACK 28 AUDIO
    TITLE "8:cjc174_2259"
    INDEX 01 00:30:02
  TRACK 29 AUDIO
    TITLE "0:"
    INDEX 01 00:32:14
  TRACK 30 AUDIO
    TITLE "7:cjc174_2260"
    INDEX 01 00:32:57
  TRACK 31 AUDIO
    TITLE "0:"
    INDEX 01 00:33:72
  TRACK 32 AUDIO
    TITLE "8:cjc174_2261"
    INDEX 01 00:34:44
  TRACK 33 AUDIO
    TITLE "0:"
    INDEX 01 00:37:60
  TRACK 34 AUDIO
    TITLE "7:cjc174_2262"
    INDEX 01 00:38:30
  TRACK 35 AUDIO
    TITLE "0:"
    INDEX 01 00:39:51
  TRACK 36 AUDIO
    TITLE "8:cjc174_2263"
    INDEX 01 00:40:22
  TRACK 37 AUDIO
    TITLE "0:"
    INDEX 01 00:43:49
  TRACK 38 AUDIO
    TITLE "7:cjc174_2264"
    INDEX 01 00:44:19
  TRACK 39 AUDIO
    TITLE "0:"
    INDEX 01 00:45:46
  TRACK 40 AUDIO
    TITLE "8:cjc174_2265"
    INDEX 01 00:46:22
  TRACK 41 AUDIO
    TITLE "0:"
    INDEX 01 00:47:39
  TRACK 42 AUDIO
    TITLE "7:cjc174_2266"
    INDEX 01 00:48:07
  TRACK 43 AUDIO
    TITLE "0:"
    INDEX 01 00:49:19
  TRACK 44 AUDIO
    TITLE "8:cjc174_2267"
    INDEX 01 00:49:73
  TRACK 45 AUDIO
    TITLE "0:"
    INDEX 01 00:53:69
  TRACK 46 AUDIO
    TITLE "7:cjc174_2268"
    INDEX 01 00:54:39
  TRACK 47 AUDIO
    TITLE "0:"
    INDEX 01 00:55:62
  TRACK 48 AUDIO
    TITLE "8:cjc174_2269"
    INDEX 01 00:56:34
  TRACK 49 AUDIO
    TITLE "0:"
    INDEX 01 00:57:59
  TRACK 50 AUDIO
    TITLE "7:cjc174_2270"
    INDEX 01 00:58:27
  TRACK 51 AUDIO
    TITLE "0:"
    INDEX 01 00:59:48
  TRACK 52 AUDIO
    TITLE "8:cjc174_2271"
    INDEX 01 01:00:20
  TRACK 53 AUDIO
    TITLE "0:"
    INDEX 01 01:01:28
  TRACK 54 AUDIO
    TITLE "7:cjc174_2272"
    INDEX 01 01:01:73
  TRACK 55 AUDIO
    TITLE "0:"
    INDEX 01 01:03:27
  TRACK 56 AUDIO
    TITLE "8:cjc174_2273"
    INDEX 01 01:04:01
  TRACK 57 AUDIO
    TITLE "0:"
    INDEX 01 01:06:48
  TRACK 58 AUDIO
    TITLE "7:cjc174_2274"
    INDEX 01 01:07:18
  TRACK 59 AUDIO
    TITLE "0:"
    INDEX 01 01:08:43
  TRACK 60 AUDIO
    TITLE "8:cjc174_2275"
    INDEX 01 01:09:19
  TRACK 61 AUDIO
    TITLE "0:"
    INDEX 01 01:12:55
  TRACK 62 AUDIO
    TITLE "7:cjc174_2276"
    INDEX 01 01:13:25
  TRACK 63 AUDIO
    TITLE "0:"
    INDEX 01 01:14:34
  TRACK 64 AUDIO
    TITLE "8:cjc174_2277"
    INDEX 01 01:15:04
  TRACK 65 AUDIO
    TITLE "0:"
    INDEX 01 01:17:07
  TRACK 66 AUDIO
    TITLE "7:cjc174_2278"
    INDEX 01 01:17:52
  TRACK 67 AUDIO
    TITLE "0:"
    INDEX 01 01:19:06
  TRACK 68 AUDIO
    TITLE "8:cjc174_2279"
    INDEX 01 01:19:53
  TRACK 69 AUDIO
    TITLE "0:"
    INDEX 01 01:21:56
  TRACK 70 AUDIO
    TITLE "7:cjc174_2280"
    INDEX 01 01:22:26
  TRACK 71 AUDIO
    TITLE "0:"
    INDEX 01 01:23:39
  TRACK 72 AUDIO
    TITLE "8:cjc174_2281"
    INDEX 01 01:24:11
  TRACK 73 AUDIO
    TITLE "0:"
    INDEX 01 01:25:26
